<svg width="16" height="16" viewBox="0 0 16 16" fill="none" xmlns="http://www.w3.org/2000/svg">
<path d="M11.914 3.02528C12.2068 2.73242 12.6816 2.73249 12.9745 3.02528C13.2674 3.31817 13.2674 3.79293 12.9745 4.08583L4.08583 12.9745C3.79293 13.2674 3.31817 13.2674 3.02528 12.9745C2.73249 12.6816 2.73242 12.2068 3.02528 11.914L11.914 3.02528Z" fill="#1BBF70"/>
<path d="M3.02527 3.02533C3.31817 2.73244 3.79293 2.73244 4.08582 3.02533L12.9745 11.914C13.2674 12.2069 13.2674 12.6817 12.9745 12.9746C12.6816 13.2674 12.2068 13.2674 11.9139 12.9746L3.02527 4.08588C2.73238 3.79299 2.73238 3.31823 3.02527 3.02533Z" fill="#1BBF70"/>
</svg>
