<svg width="44" height="48" viewBox="0 0 44 48" fill="none" xmlns="http://www.w3.org/2000/svg">
<path d="M18.0514 14.9223C18.7677 14.9223 19.3485 15.5031 19.3486 16.2195C19.3486 16.9359 18.7678 17.5166 18.0514 17.5166C17.335 17.5166 16.7542 16.9358 16.7542 16.2195C16.7542 15.5031 17.335 14.9223 18.0514 14.9223Z" fill="white"/>
<path d="M25.8342 14.9223C26.5505 14.9223 27.1313 15.5031 27.1314 16.2195C27.1314 16.9359 26.5506 17.5166 25.8342 17.5166C25.1178 17.5166 24.537 16.9358 24.537 16.2195C24.537 15.5031 25.1178 14.9223 25.8342 14.9223Z" fill="white"/>
<path d="M18.0514 10.511C18.7677 10.511 19.3485 11.0918 19.3486 11.8082C19.3486 12.5246 18.7678 13.1054 18.0514 13.1054C17.335 13.1053 16.7542 12.5246 16.7542 11.8082C16.7542 11.0919 17.335 10.5111 18.0514 10.511Z" fill="white"/>
<path d="M25.8342 10.511C26.5505 10.511 27.1313 11.0918 27.1314 11.8082C27.1314 12.5246 26.5506 13.1054 25.8342 13.1054C25.1178 13.1053 24.537 12.5246 24.537 11.8082C24.537 11.0919 25.1178 10.5111 25.8342 10.511Z" fill="white"/>
<path d="M18.0514 5.58228C18.7677 5.58228 19.3485 6.1631 19.3486 6.87946C19.3486 7.59586 18.7678 8.17665 18.0514 8.17665C17.335 8.1766 16.7542 7.59583 16.7542 6.87946C16.7542 6.16313 17.335 5.58233 18.0514 5.58228Z" fill="white"/>
<path d="M25.8342 5.58228C26.5505 5.58228 27.1313 6.1631 27.1314 6.87946C27.1314 7.59586 26.5506 8.17665 25.8342 8.17665C25.1178 8.1766 24.537 7.59583 24.537 6.87946C24.537 6.16313 25.1178 5.58233 25.8342 5.58228Z" fill="white"/>
<path fill-rule="evenodd" clip-rule="evenodd" d="M22.0292 0.00228236C34.0941 -0.0150124 40.1781 8.28028 40.1335 19.6891C41.8364 19.5763 42.7042 20.035 43.291 21.7513C44.0075 23.848 44.2363 27.6996 43.2845 29.7138C42.3728 31.6424 40.0064 34.7639 37.9704 35.5188C37.0819 38.0938 36.7421 38.483 34.8017 40.4216C32.0914 43.1295 29.2472 45.9069 25.697 47.4926C25.0482 47.7823 23.8033 47.8944 23.0717 47.9876C19.1029 48.0924 17.4236 47.5706 14.2098 45.0363C11.6342 43.0055 8.71114 40.3906 6.80856 37.6682C6.44439 37.1471 6.18416 36.2193 6.10168 35.5935C4.5394 34.9584 4.11862 34.4641 3.04762 33.216C0.466241 30.4088 -0.347931 27.9674 0.1295 24.1754C0.424732 21.8307 0.832604 19.3955 3.83575 19.7182C3.81981 14.8988 5.10825 9.25312 8.34418 5.56134C11.9079 1.49557 15.8574 0.34978 21.0682 0.0247823C21.3629 -0.0111443 21.7282 0.00269743 22.0292 0.00228236ZM24.1998 1.77603C23.5084 1.71642 20.7586 1.6085 20.1089 1.73603C7.8833 2.76389 4.76349 12.6527 5.68512 23.2885C5.72074 23.7015 5.76402 24.114 5.81481 24.5254C5.30088 23.7905 4.39457 22.2727 3.83669 21.6957C2.09303 19.8922 1.8082 24.2897 1.70731 25.0891C1.31875 28.168 2.59809 30.3153 4.60262 32.5251C5.28823 33.317 5.61406 33.586 6.56387 34.0398C6.82396 34.0123 7.08438 33.9868 7.34481 33.9632C7.47873 34.5044 7.89125 36.3732 8.17168 36.766C10.3771 39.856 14.215 43.1724 17.3767 45.2432C19.2788 46.4889 22.0458 46.4766 24.111 46.1876C24.8776 46.0482 25.5248 45.8227 26.2101 45.4494C28.9255 43.9691 31.4717 41.4672 33.6245 39.2779C34.2792 38.612 35.0047 37.9304 35.5432 37.1657C36.0034 36.512 36.4525 34.0364 36.8442 33.9679C37.0856 33.9262 37.3685 34.0359 37.5942 33.961C38.6225 33.6191 40.1509 31.5654 40.7673 30.7219C41.2215 30.0999 41.7153 29.3867 41.9745 28.6557C42.4985 27.1778 42.2896 25.0539 42.0535 23.5388C41.9544 22.9043 41.7892 21.8085 41.2301 21.421C41.0745 21.3131 40.9092 21.2826 40.7235 21.3176C39.993 21.4555 38.6446 23.6689 38.2342 24.3288C38.1969 24.3889 38.1606 24.4497 38.1251 24.511C38.7949 18.0285 38.9155 12.3817 34.5782 6.86603C32.1321 3.75538 28.0315 2.10637 24.1998 1.77603Z" fill="white"/>
</svg>
